<?xml version="1.0" encoding="utf-8"?>
<svg xmlns="http://www.w3.org/2000/svg" viewBox="209.5656 216 85.8687 80" width="85.8687px" height="80px"><defs><filter id="filter3_d_1346_9479" x="226.5" y="86.8339" width="133.869" height="128" filterUnits="userSpaceOnUse" color-interpolation-filters="sRGB"><feFlood flood-opacity="0" result="BackgroundImageFix"/><feColorMatrix in="SourceAlpha" type="matrix" values="0 0 0 0 0 0 0 0 0 0 0 0 0 0 0 0 0 0 127 0" result="hardAlpha"/><feOffset dy="8"/><feGaussianBlur stdDeviation="12"/><feComposite in2="hardAlpha" operator="out"/><feColorMatrix type="matrix" values="0 0 0 0 0 0 0 0 0 0 0 0 0 0 0 0 0 0 0.04 0"/><feBlend mode="normal" in2="BackgroundImageFix" result="effect1_dropShadow_1346_9479"/><feBlend mode="normal" in="SourceGraphic" in2="effect1_dropShadow_1346_9479" result="shape"/></filter></defs><g filter="url(#filter3_d_1346_9479)" transform="matrix(1, 0, 0, 1, -40.934356689453125, 113.16600036621094)" id="group-0"><rect x="250.5" y="102.834" width="85.8687" height="80" rx="8" style="" fill="#4357F2" id="rect-0"/><path d="M 293.091 133.564 C 294.328 133.568 296.443 134.234 296.443 134.234 C 296.537 134.243 296.2 136.194 296.245 136.215 C 296.223 136.207 295.107 135.816 294.597 135.715 C 294.083 135.613 293.608 135.565 293.085 135.564 C 292.221 135.561 291.422 135.676 290.623 135.946 C 290.265 137.779 289.318 139.494 288.009 140.7 C 286.377 142.203 283.94 143.167 281.46 143.199 C 278.98 143.154 276.549 142.176 274.926 140.663 C 273.297 139.144 272.24 136.828 272.197 134.49 C 272.255 132.152 273.327 129.842 274.966 128.333 C 276.598 126.829 279.034 125.865 281.515 125.834 C 283.995 125.879 286.426 126.856 288.049 128.369 C 289.517 129.738 290.521 131.753 290.736 133.85 C 291.516 133.662 292.322 133.561 293.091 133.564 Z M 296.245 136.215 C 296.245 136.215 296.245 136.215 296.245 136.215 C 296.245 136.215 296.245 136.215 296.245 136.215 Z M 276.29 139.2 C 277.659 140.477 279.368 141.231 281.466 141.199 C 283.563 141.243 285.277 140.498 286.654 139.229 C 288.025 137.966 288.822 136.439 288.778 134.536 C 288.834 132.632 288.047 131.102 286.685 129.832 C 285.316 128.555 283.607 127.801 281.509 127.834 C 279.413 127.79 277.698 128.535 276.321 129.804 C 274.95 131.067 274.153 132.593 274.197 134.496 C 274.141 136.4 274.928 137.93 276.29 139.2 Z" style="fill: rgb(255, 255, 255);" id="path-0"/><path d="M 291.861 156.676 C 291.51 156.744 291.223 156.995 291.107 157.332 C 290.991 157.67 291.065 158.044 291.3 158.313 C 291.535 158.581 291.895 158.704 292.245 158.635 C 292.245 158.635 292.183 158.647 292.245 158.635 C 292.245 158.635 293.748 158.551 294.548 158.339 C 295.349 158.126 296.173 157.787 296.876 157.383 C 298.281 156.574 299.537 155.287 300.321 153.852 C 300.579 153.363 300.393 152.758 299.905 152.5 C 299.416 152.242 298.811 152.428 298.553 152.916 C 297.945 154.112 297.058 154.971 295.879 155.649 C 295.289 155.988 294.709 156.227 294.035 156.405 C 293.697 156.495 293.384 156.557 293.032 156.602 C 292.679 156.648 291.861 156.676 291.861 156.676 C 291.893 156.673 291.861 156.676 291.861 156.676 Z" style="fill: rgb(255, 255, 255);" id="path-1"/><path d="M 295.408 134.553 C 295.466 132.214 296.538 129.905 298.177 128.395 C 299.809 126.892 302.246 125.928 304.726 125.896 C 307.206 125.941 309.637 126.919 311.26 128.432 C 312.889 129.951 313.946 132.267 313.989 134.605 C 313.931 136.944 312.859 139.253 311.22 140.763 C 309.588 142.266 307.151 143.23 304.671 143.261 C 302.191 143.216 299.76 142.239 298.137 140.726 C 296.508 139.207 295.451 136.891 295.408 134.553 Z M 299.501 139.263 C 300.87 140.54 302.579 141.294 304.677 141.261 C 306.773 141.305 308.488 140.56 309.865 139.292 C 311.236 138.029 312.033 136.502 311.989 134.599 C 312.045 132.696 311.258 131.165 309.896 129.895 C 308.527 128.618 306.818 127.864 304.72 127.896 C 302.623 127.852 300.909 128.597 299.532 129.866 C 298.161 131.129 297.364 132.656 297.408 134.559 C 297.352 136.462 298.139 137.993 299.501 139.263 Z" style="fill: rgb(255, 255, 255);" id="path-2"/><path d="M 266.673 134.47 C 266.675 133.918 267.124 133.471 267.676 133.473 L 273.201 133.489 C 273.753 133.491 274.2 133.94 274.198 134.492 C 274.196 135.044 273.747 135.491 273.195 135.489 L 267.67 135.473 C 267.118 135.471 266.671 135.022 266.673 134.47 Z M 311.99 134.599 C 311.992 134.047 312.441 133.6 312.993 133.602 L 318.527 133.618 C 319.079 133.62 319.526 134.069 319.524 134.621 C 319.522 135.173 319.073 135.62 318.521 135.618 L 312.987 135.602 C 312.435 135.6 311.988 135.151 311.99 134.599 Z M 289.269 148.544 C 289.269 148.544 290.251 148.433 290.578 148.31 C 290.904 148.187 291.123 148.065 291.366 147.829 C 291.891 147.398 292.094 146.96 292.054 146.322 L 292.063 143.024 C 292.065 142.472 292.513 142.025 293.066 142.027 C 293.618 142.029 294.065 142.477 294.063 143.03 L 294.054 146.334 C 294.004 147.378 293.478 148.547 292.72 149.3 C 292.32 149.655 291.782 149.992 291.285 150.18 C 290.789 150.368 289.976 150.414 289.976 150.414 C 289.888 150.439 289.976 150.414 289.976 150.414 C 289.459 150.61 288.882 150.349 288.687 149.832 C 288.491 149.316 288.752 148.739 289.269 148.544 Z M 289.269 148.544 C 289.356 148.519 289.269 148.544 289.269 148.544 Z" style="fill: rgb(255, 255, 255);" id="path-3"/></g></svg>