<?xml version="1.0" encoding="utf-8"?>
<svg viewBox="60.531 236.553 238.375 187.812" width="238.375" height="187.812" xmlns="http://www.w3.org/2000/svg">
  <g transform="matrix(0.1, 0, 0, -0.1, 58.030815, 425.543732)" fill="#000000" stroke="none">
    <title>back</title>
    <path d="M871 1871 c-16 -30 -13 -55 10 -85 26 -33 54 -33 76 0 16 25 16 28 -3 63 -23 43 -66 55 -83 22z" style=""/>
    <path d="M942 1738 c-32 -32 -15 -66 158 -304 114 -156 170 -242 170 -259 0 -14 14 -52 30 -85 l30 -60 -193 0 -194 0 -184 121 c-101 66 -199 135 -217 152 -30 29 -39 32 -92 32 -51 0 -63 -4 -89 -29 -54 -51 -57 -112 -12 -229 6 -16 11 -32 11 -37 0 -5 -58 -10 -130 -12 l-130 -3 -37 -38 -38 -37 0 -325 0 -325 38 -37 37 -38 100 -3 100 -4 0 -26 c1 -36 32 -102 61 -129 97 -89 245 -58 300 62 10 22 19 52 19 68 l0 27 520 0 520 0 0 -27 c1 -37 31 -103 61 -130 99 -91 251 -56 304 69 8 21 15 49 15 63 l0 25 103 0 c118 0 159 15 189 71 17 31 18 58 16 346 l-3 313 -38 37 -37 38 -360 3 c-339 3 -360 4 -360 21 0 29 -95 214 -125 241 -22 21 -37 25 -87 26 -52 1 -64 4 -81 25 l-19 24 38 6 c84 12 144 74 144 149 0 76 -74 150 -151 150 -48 0 -104 -37 -131 -87 l-25 -44 -74 103 c-68 93 -79 103 -110 106 -19 2 -40 -3 -47 -10z m-232 -704 c0 -2 -18 -4 -40 -4 -38 0 -40 2 -40 30 l0 30 40 -26 c22 -15 40 -28 40 -30z" style=""/>
    <path d="M289 1648 c-43 -24 -79 -83 -79 -127 0 -77 74 -151 150 -151 76 0 150 74 150 150 0 50 -35 107 -80 130 -50 26 -95 25 -141 -2z" style=""/>
  </g>
</svg>