<?xml version="1.0" encoding="utf-8"?>
<svg viewBox="351.987 237.792 289.944 187.525" width="289.944" height="187.525" xmlns="http://www.w3.org/2000/svg">
  <g transform="matrix(0.1, 0, 0, -0.1, 58.030815, 425.543732)">
    <title>front</title>
    <path d="M 2956 1864 C 2919 1827 2949 1750 3001 1750 C 3037 1750 3055 1785 3039 1827 C 3021 1875 2983 1892 2956 1864 Z" style=""/>
    <path d="M 3034 1732 C 3013 1718 3002 1686 3010 1664 C 3020 1639 3326 1214 3341 1205 C 3346 1201 3350 1184 3350 1167 C 3350 1149 3359 1115 3370 1091 C 3381 1067 3390 1046 3390 1045 C 3390 1043 3336 1040 3270 1038 L 3150 1035 L 3113 997 L 3075 960 L 3075 635 L 3075 310 L 3113 273 L 3150 235 L 3324 232 L 3498 229 L 3502 180 C 3509 114 3543 66 3604 35 C 3667 3 3713 3 3776 35 C 3837 66 3871 114 3878 180 L 3883 230 L 4401 230 L 4920 230 L 4920 195 C 4920 121 4966 51 5035 19 C 5185 -50 5348 107 5285 261 C 5280 274 5298 283 5379 309 C 5541 360 5653 422 5736 504 C 5794 562 5811 586 5824 630 C 5844 697 5844 723 5824 791 C 5802 864 5697 968 5585 1027 C 5399 1124 5107 1190 4859 1190 L 4778 1190 L 4785 1115 L 4792 1040 L 4741 1040 C 4695 1040 4680 1047 4543 1136 C 4462 1189 4378 1248 4358 1266 C 4338 1284 4303 1304 4282 1311 C 4247 1321 4236 1320 4198 1302 C 4124 1265 4102 1195 4135 1100 C 4143 1077 4150 1054 4150 1049 C 4150 1044 4046 1040 3920 1040 C 3709 1040 3689 1041 3684 1058 C 3667 1114 3591 1256 3567 1276 C 3534 1304 3484 1315 3449 1301 C 3426 1293 3420 1295 3401 1320 C 3390 1336 3380 1351 3380 1353 C 3380 1356 3399 1360 3422 1363 C 3502 1374 3555 1439 3547 1519 C 3538 1600 3472 1655 3391 1647 C 3336 1641 3301 1615 3275 1563 L 3255 1522 L 3190 1613 C 3154 1663 3117 1712 3108 1722 C 3090 1740 3054 1745 3034 1732 Z M 4455 1050 C 4458 1045 4457 1040 4451 1040 C 4446 1040 4438 1045 4435 1050 C 4432 1056 4433 1060 4439 1060 C 4444 1060 4452 1056 4455 1050 Z" style=""/>
    <path d="M 4089 1618 C 4046 1594 4010 1535 4010 1491 C 4010 1414 4084 1340 4160 1340 C 4210 1340 4267 1375 4290 1420 C 4301 1441 4310 1473 4310 1490 C 4310 1540 4275 1597 4230 1620 C 4180 1646 4135 1645 4089 1618 Z" style=""/>
  </g>
</svg>